<mxfile host="65bd71144e">
    <diagram id="JBuGwG7cJV6rW153aAwt" name="第 1 页">
        <mxGraphModel dx="668" dy="504" grid="1" gridSize="10" guides="1" tooltips="1" connect="1" arrows="1" fold="1" page="1" pageScale="1" pageWidth="1600" pageHeight="900" math="0" shadow="0">
            <root>
                <mxCell id="0"/>
                <mxCell id="1" parent="0"/>
                <mxCell id="2" value="项目代码进化史" style="rounded=0;whiteSpace=wrap;html=1;fillColor=#ffe6cc;strokeColor=#d79b00;sketch=1;" vertex="1" parent="1">
                    <mxGeometry x="60" y="100" width="660" height="30" as="geometry"/>
                </mxCell>
                <mxCell id="4" value="" style="rounded=0;whiteSpace=wrap;html=1;sketch=1;fontFamily=Helvetica;fontSize=12;strokeColor=#666666;fillColor=#f5f5f5;fontColor=#333333;" vertex="1" parent="1">
                    <mxGeometry x="60" y="170" width="150" height="260" as="geometry"/>
                </mxCell>
                <mxCell id="5" value="" style="rounded=1;whiteSpace=wrap;html=1;sketch=1;fontFamily=Helvetica;fontSize=12;strokeColor=#b85450;fillColor=#f8cecc;" vertex="1" parent="1">
                    <mxGeometry x="75" y="190" width="120" height="230" as="geometry"/>
                </mxCell>
                <mxCell id="6" value="后端项目" style="text;html=1;align=center;verticalAlign=middle;resizable=0;points=[];autosize=1;strokeColor=none;fillColor=none;fontSize=12;fontFamily=Helvetica;fontColor=default;" vertex="1" parent="1">
                    <mxGeometry x="70" y="170" width="60" height="20" as="geometry"/>
                </mxCell>
                <mxCell id="7" value="前端代码" style="rounded=1;whiteSpace=wrap;html=1;sketch=1;fontFamily=Helvetica;fontSize=12;fontColor=default;strokeColor=#d79b00;fillColor=#ffe6cc;" vertex="1" parent="1">
                    <mxGeometry x="75" y="350" width="120" height="60" as="geometry"/>
                </mxCell>
                <mxCell id="8" value="控制器" style="rounded=1;whiteSpace=wrap;html=1;sketch=1;fontFamily=Helvetica;fontSize=12;fontColor=default;strokeColor=#d79b00;fillColor=#ffe6cc;" vertex="1" parent="1">
                    <mxGeometry x="75" y="220" width="120" height="60" as="geometry"/>
                </mxCell>
                <mxCell id="9" value="" style="rounded=0;whiteSpace=wrap;html=1;sketch=1;fontFamily=Helvetica;fontSize=12;strokeColor=#666666;fillColor=#f5f5f5;fontColor=#333333;" vertex="1" parent="1">
                    <mxGeometry x="235" y="170" width="150" height="260" as="geometry"/>
                </mxCell>
                <mxCell id="10" value="" style="rounded=1;whiteSpace=wrap;html=1;sketch=1;fontFamily=Helvetica;fontSize=12;strokeColor=#b85450;fillColor=#f8cecc;" vertex="1" parent="1">
                    <mxGeometry x="250" y="190" width="120" height="230" as="geometry"/>
                </mxCell>
                <mxCell id="14" value="" style="edgeStyle=none;html=1;fontFamily=Helvetica;fontSize=12;fontColor=default;exitX=0.25;exitY=0;exitDx=0;exitDy=0;entryX=0.25;entryY=1;entryDx=0;entryDy=0;" edge="1" parent="1" source="12" target="13">
                    <mxGeometry relative="1" as="geometry"/>
                </mxCell>
                <mxCell id="16" value="ajax" style="edgeLabel;html=1;align=center;verticalAlign=middle;resizable=0;points=[];fontSize=12;fontFamily=Helvetica;fontColor=default;" vertex="1" connectable="0" parent="14">
                    <mxGeometry x="0.1429" y="2" relative="1" as="geometry">
                        <mxPoint as="offset"/>
                    </mxGeometry>
                </mxCell>
                <mxCell id="12" value="前端代码" style="rounded=1;whiteSpace=wrap;html=1;sketch=1;fontFamily=Helvetica;fontSize=12;fontColor=default;strokeColor=#d79b00;fillColor=#ffe6cc;" vertex="1" parent="1">
                    <mxGeometry x="250" y="350" width="120" height="60" as="geometry"/>
                </mxCell>
                <mxCell id="13" value="后端代码" style="rounded=1;whiteSpace=wrap;html=1;sketch=1;fontFamily=Helvetica;fontSize=12;fontColor=default;strokeColor=#d79b00;fillColor=#ffe6cc;" vertex="1" parent="1">
                    <mxGeometry x="250" y="220" width="120" height="60" as="geometry"/>
                </mxCell>
                <mxCell id="15" value="" style="edgeStyle=none;html=1;fontFamily=Helvetica;fontSize=12;fontColor=default;entryX=0.75;entryY=0;entryDx=0;entryDy=0;exitX=0.75;exitY=1;exitDx=0;exitDy=0;" edge="1" parent="1" source="13" target="12">
                    <mxGeometry relative="1" as="geometry">
                        <mxPoint x="320" y="360" as="sourcePoint"/>
                        <mxPoint x="320" y="290" as="targetPoint"/>
                    </mxGeometry>
                </mxCell>
                <mxCell id="17" value="" style="rounded=0;whiteSpace=wrap;html=1;sketch=1;fontFamily=Helvetica;fontSize=12;strokeColor=#666666;fillColor=#f5f5f5;fontColor=#333333;" vertex="1" parent="1">
                    <mxGeometry x="400" y="170" width="150" height="260" as="geometry"/>
                </mxCell>
                <mxCell id="18" value="" style="rounded=1;whiteSpace=wrap;html=1;sketch=1;fontFamily=Helvetica;fontSize=12;strokeColor=#b85450;fillColor=#f8cecc;" vertex="1" parent="1">
                    <mxGeometry x="415" y="190" width="120" height="230" as="geometry"/>
                </mxCell>
                <mxCell id="19" value="" style="edgeStyle=none;html=1;fontFamily=Helvetica;fontSize=12;fontColor=default;exitX=0.25;exitY=0;exitDx=0;exitDy=0;entryX=0.25;entryY=1;entryDx=0;entryDy=0;" edge="1" parent="1" source="21" target="22">
                    <mxGeometry relative="1" as="geometry"/>
                </mxCell>
                <mxCell id="20" value="ajax" style="edgeLabel;html=1;align=center;verticalAlign=middle;resizable=0;points=[];fontSize=12;fontFamily=Helvetica;fontColor=default;" vertex="1" connectable="0" parent="19">
                    <mxGeometry x="0.1429" y="2" relative="1" as="geometry">
                        <mxPoint as="offset"/>
                    </mxGeometry>
                </mxCell>
                <mxCell id="21" value="" style="rounded=1;whiteSpace=wrap;html=1;sketch=1;fontFamily=Helvetica;fontSize=12;fontColor=default;strokeColor=#d79b00;fillColor=#ffe6cc;" vertex="1" parent="1">
                    <mxGeometry x="415" y="310" width="120" height="100" as="geometry"/>
                </mxCell>
                <mxCell id="22" value="后端代码" style="rounded=1;whiteSpace=wrap;html=1;sketch=1;fontFamily=Helvetica;fontSize=12;fontColor=default;strokeColor=#d79b00;fillColor=#ffe6cc;" vertex="1" parent="1">
                    <mxGeometry x="415" y="220" width="120" height="60" as="geometry"/>
                </mxCell>
                <mxCell id="23" value="" style="edgeStyle=none;html=1;fontFamily=Helvetica;fontSize=12;fontColor=default;entryX=0.75;entryY=0;entryDx=0;entryDy=0;exitX=0.75;exitY=1;exitDx=0;exitDy=0;" edge="1" parent="1" source="22" target="21">
                    <mxGeometry relative="1" as="geometry">
                        <mxPoint x="485" y="360" as="sourcePoint"/>
                        <mxPoint x="485" y="290" as="targetPoint"/>
                    </mxGeometry>
                </mxCell>
                <mxCell id="24" value="html + bundle.js" style="rounded=0;whiteSpace=wrap;html=1;sketch=1;fontFamily=Helvetica;fontSize=12;fontColor=default;strokeColor=#d79b00;fillColor=#ffe6cc;" vertex="1" parent="1">
                    <mxGeometry x="415" y="320" width="115" height="30" as="geometry"/>
                </mxCell>
                <mxCell id="28" value="html + js + css" style="rounded=0;whiteSpace=wrap;html=1;sketch=1;fontFamily=Helvetica;fontSize=12;fontColor=default;strokeColor=#d79b00;fillColor=#ffe6cc;" vertex="1" parent="1">
                    <mxGeometry x="415" y="380" width="115" height="30" as="geometry"/>
                </mxCell>
                <mxCell id="29" value="" style="shape=flexArrow;endArrow=classic;html=1;fontFamily=Helvetica;fontSize=12;fontColor=default;" edge="1" parent="1" source="28">
                    <mxGeometry width="50" height="50" relative="1" as="geometry">
                        <mxPoint x="400" y="290" as="sourcePoint"/>
                        <mxPoint x="473" y="350" as="targetPoint"/>
                    </mxGeometry>
                </mxCell>
                <mxCell id="30" value="" style="rounded=0;whiteSpace=wrap;html=1;sketch=1;fontFamily=Helvetica;fontSize=12;strokeColor=#666666;fillColor=#f5f5f5;fontColor=#333333;" vertex="1" parent="1">
                    <mxGeometry x="570" y="170" width="150" height="260" as="geometry"/>
                </mxCell>
                <mxCell id="31" value="" style="rounded=1;whiteSpace=wrap;html=1;sketch=1;fontFamily=Helvetica;fontSize=12;strokeColor=#b85450;fillColor=#f8cecc;" vertex="1" parent="1">
                    <mxGeometry x="585" y="190" width="120" height="230" as="geometry"/>
                </mxCell>
                <mxCell id="32" value="" style="edgeStyle=none;html=1;fontFamily=Helvetica;fontSize=12;fontColor=default;exitX=0.25;exitY=0;exitDx=0;exitDy=0;entryX=0.25;entryY=1;entryDx=0;entryDy=0;" edge="1" parent="1" source="34" target="35">
                    <mxGeometry relative="1" as="geometry"/>
                </mxCell>
                <mxCell id="33" value="ajax" style="edgeLabel;html=1;align=center;verticalAlign=middle;resizable=0;points=[];fontSize=12;fontFamily=Helvetica;fontColor=default;" vertex="1" connectable="0" parent="32">
                    <mxGeometry x="0.1429" y="2" relative="1" as="geometry">
                        <mxPoint as="offset"/>
                    </mxGeometry>
                </mxCell>
                <mxCell id="34" value="" style="rounded=1;whiteSpace=wrap;html=1;sketch=1;fontFamily=Helvetica;fontSize=12;fontColor=default;strokeColor=#d79b00;fillColor=#ffe6cc;" vertex="1" parent="1">
                    <mxGeometry x="585" y="310" width="120" height="100" as="geometry"/>
                </mxCell>
                <mxCell id="35" value="后端代码" style="rounded=1;whiteSpace=wrap;html=1;sketch=1;fontFamily=Helvetica;fontSize=12;fontColor=default;strokeColor=#d79b00;fillColor=#ffe6cc;" vertex="1" parent="1">
                    <mxGeometry x="585" y="220" width="120" height="60" as="geometry"/>
                </mxCell>
                <mxCell id="36" value="" style="edgeStyle=none;html=1;fontFamily=Helvetica;fontSize=12;fontColor=default;entryX=0.75;entryY=0;entryDx=0;entryDy=0;exitX=0.75;exitY=1;exitDx=0;exitDy=0;" edge="1" parent="1" source="35" target="34">
                    <mxGeometry relative="1" as="geometry">
                        <mxPoint x="655" y="360" as="sourcePoint"/>
                        <mxPoint x="655" y="290" as="targetPoint"/>
                    </mxGeometry>
                </mxCell>
                <mxCell id="37" value="html + bundle.js" style="rounded=0;whiteSpace=wrap;html=1;sketch=1;fontFamily=Helvetica;fontSize=12;fontColor=default;strokeColor=#d79b00;fillColor=#ffe6cc;" vertex="1" parent="1">
                    <mxGeometry x="585" y="320" width="115" height="30" as="geometry"/>
                </mxCell>
                <mxCell id="38" value="&lt;font color=&quot;#cccccc&quot;&gt;html&lt;/font&gt; /vue/ts/js/css" style="rounded=0;whiteSpace=wrap;html=1;sketch=1;fontFamily=Helvetica;fontSize=12;fontColor=default;strokeColor=#d79b00;fillColor=#ffe6cc;" vertex="1" parent="1">
                    <mxGeometry x="585" y="380" width="115" height="30" as="geometry"/>
                </mxCell>
                <mxCell id="39" value="" style="shape=flexArrow;endArrow=classic;html=1;fontFamily=Helvetica;fontSize=12;fontColor=default;" edge="1" parent="1" source="38">
                    <mxGeometry width="50" height="50" relative="1" as="geometry">
                        <mxPoint x="570" y="290" as="sourcePoint"/>
                        <mxPoint x="643" y="350" as="targetPoint"/>
                    </mxGeometry>
                </mxCell>
            </root>
        </mxGraphModel>
    </diagram>
</mxfile>
